<?xml version="1.0" encoding="UTF-8" standalone="no"?>
<!-- Created with Inkscape (http://www.inkscape.org/) -->

<svg
   width="512mm"
   height="512mm"
   viewBox="0 0 512 512"
   version="1.1"
   id="svg1"
   xml:space="preserve"
   inkscape:version="1.4.3 (0d15f75, 2025-12-25)"
   sodipodi:docname="favicon-master 2.svg"
   inkscape:export-filename="android-chrome-512x512.png"
   inkscape:export-xdpi="25.4"
   inkscape:export-ydpi="25.4"
   xmlns:inkscape="http://www.inkscape.org/namespaces/inkscape"
   xmlns:sodipodi="http://sodipodi.sourceforge.net/DTD/sodipodi-0.dtd"
   xmlns="http://www.w3.org/2000/svg"
   xmlns:svg="http://www.w3.org/2000/svg"><sodipodi:namedview
     id="namedview1"
     pagecolor="#c8ffff"
     bordercolor="#000000"
     borderopacity="0.25"
     inkscape:showpageshadow="2"
     inkscape:pageopacity="0.0"
     inkscape:pagecheckerboard="0"
     inkscape:deskcolor="#d1d1d1"
     inkscape:document-units="mm"
     inkscape:zoom="0.50466821"
     inkscape:cx="1167.1034"
     inkscape:cy="1005.6112"
     inkscape:window-width="2560"
     inkscape:window-height="1351"
     inkscape:window-x="-9"
     inkscape:window-y="-9"
     inkscape:window-maximized="1"
     inkscape:current-layer="svg1" /><defs
     id="defs1"><inkscape:path-effect
       effect="bspline"
       id="path-effect5"
       is_visible="true"
       lpeversion="1.3"
       weight="33.333333"
       steps="2"
       helper_size="0"
       apply_no_weight="true"
       apply_with_weight="true"
       only_selected="false"
       uniform="false" /></defs><g
     inkscape:label="Livello 1"
     inkscape:groupmode="layer"
     id="layer1" /><g
     id="g13"
     transform="matrix(1.1071429,0,0,1.1071429,-27.428582,-27.428582)"><rect
       style="fill:#ffffff;stroke-width:0;stroke-linejoin:round;stroke-miterlimit:0"
       id="rect11"
       width="448"
       height="448"
       x="32"
       y="32"
       ry="92" /><g
       id="g12"
       transform="translate(-5e-7,-17.522235)"><path
         style="fill:#000000;stroke-width:0;stroke-linejoin:round;stroke-miterlimit:0"
         d="M 46.912011,198.42464 255.99993,99.225427 465.08799,198.42457 255.99993,133.00449 Z"
         id="path3-1" /><g
         id="g11"
         transform="matrix(7.3543924,0,0,7.3543924,-479.74743,-1359.6313)"
         style="fill:#000000"><path
           style="fill:#000000;stroke-width:0;stroke-linejoin:round;stroke-miterlimit:0"
           d="m 79.1923,222.53583 v -5.30825 l 13.17233,-5.37379 -0.0232,33.81586 c 0,0 -6.39916,-7e-4 -6.39916,0 v -25.75519 z"
           id="path4-5"
           sodipodi:nodetypes="ccccccc" /><path
           id="path5-2"
           style="fill:#000000;stroke-width:0;stroke-linejoin:round;stroke-miterlimit:0"
           d="m 108.24821,212.16287 c -0.56161,-0.0131 -1.11899,-0.007 -1.66812,0.005 -5.89779,0.12442 -10.681,4.82374 -10.681,10.77402 0,2.72188 0.67598,5.06895 2.32648,6.96547 1.95764,2.24944 5.15389,3.80855 8.35452,3.80855 2.53003,0 5.43462,-0.95535 7.92665,-2.51612 l -0.003,0.004 c -1.21821,7.39607 -6.33492,10.24866 -14.33504,9.83093 v 4.63537 c 20.00497,1.40532 21.3267,-13.17767 20.56825,-21.20439 -0.61928,-5.31367 -2.46985,-8.54182 -7.42487,-11.26804 -1.656,-0.78004 -3.37945,-0.99485 -5.06428,-1.03405 z m -0.73897,5.17642 c 0.22934,-0.0104 0.4651,-0.0105 0.70693,0 3.29066,0.14238 5.71697,2.01166 6.12934,5.75211 0.36595,3.31947 -2.22177,5.55444 -5.80171,5.85029 -3.73712,0.30883 -6.45589,-2.50096 -6.47351,-5.89939 -0.0161,-3.10114 1.99874,-5.54731 5.43895,-5.70301 z" /></g><path
         style="fill:#000000;stroke-width:0;stroke-linejoin:round;stroke-miterlimit:0"
         d="m 157.97485,437.11678 h 82.63712"
         id="path7-7" /></g></g></svg>
